<?xml version="1.0" encoding="UTF-8" standalone="no"?>
<!DOCTYPE svg PUBLIC "-//W3C//DTD SVG 1.1//EN"
 "http://www.w3.org/Graphics/SVG/1.1/DTD/svg11.dtd">
<!-- Generated by graphviz version 2.40.1 (0)
 -->
<!-- Title: %3 Pages: 1 -->
<svg width="216pt" height="319pt"
 viewBox="0.00 0.00 215.75 318.62" xmlns="http://www.w3.org/2000/svg" xmlns:xlink="http://www.w3.org/1999/xlink">
<g id="graph0" class="graph" transform="scale(1 1) rotate(0) translate(4 314.6173)">
<title>%3</title>
<polygon fill="#ffffff" stroke="transparent" points="-4,4 -4,-314.6173 211.7523,-314.6173 211.7523,4 -4,4"/>
<!-- A -->
<g id="node1" class="node">
<title>A</title>
<polygon fill="#d3d3d3" stroke="#000000" points="94.8762,-310.6173 71.8762,-310.6173 71.8762,-292.6173 94.8762,-292.6173 94.8762,-310.6173"/>
<text text-anchor="middle" x="83.3762" y="-299.4173" font-family="Times,serif" font-size="9.00" fill="#000000">A</text>
</g>
<!-- id_296&#45;c_2 -->
<g id="node4" class="node">
<title>id_296&#45;c_2</title>
<ellipse fill="#ffffff" stroke="#000000" cx="47.3762" cy="-209.2412" rx="47.2526" ry="47.2526"/>
<text text-anchor="middle" x="47.3762" y="-207.0412" font-family="Times,serif" font-size="9.00" fill="#000000">id_296&#45;c_2</text>
</g>
<!-- A&#45;&gt;id_296&#45;c_2 -->
<g id="edge2" class="edge">
<title>A&#45;&gt;id_296&#45;c_2</title>
<path fill="none" stroke="#00ff00" stroke-width=".2416" d="M79.7927,-292.4222C76.9861,-285.2203 72.8299,-274.5555 68.4227,-263.2468"/>
<polygon fill="#00ff00" stroke="#00ff00" stroke-width=".2416" points="71.5781,-261.7044 64.6858,-253.6578 65.0559,-264.2462 71.5781,-261.7044"/>
</g>
<!-- id_295&#45;c_1 -->
<g id="node5" class="node">
<title>id_295&#45;c_1</title>
<ellipse fill="#ffffff" stroke="#000000" cx="160.3762" cy="-209.2412" rx="47.2526" ry="47.2526"/>
<text text-anchor="middle" x="160.3762" y="-207.0412" font-family="Times,serif" font-size="9.00" fill="#000000">id_295&#45;c_1</text>
</g>
<!-- A&#45;&gt;id_295&#45;c_1 -->
<g id="edge1" class="edge">
<title>A&#45;&gt;id_295&#45;c_1</title>
<path fill="none" stroke="#00ff00" stroke-width=".2175" d="M91.0407,-292.4222C98.6795,-283.258 110.9922,-268.4867 123.1373,-253.9163"/>
<polygon fill="#00ff00" stroke="#00ff00" stroke-width=".2175" points="126.1222,-255.8016 129.8366,-245.8792 120.7452,-251.3196 126.1222,-255.8016"/>
</g>
<!-- B -->
<g id="node2" class="node">
<title>B</title>
<polygon fill="#d3d3d3" stroke="#000000" points="153.8762,-310.6173 130.8762,-310.6173 130.8762,-292.6173 153.8762,-292.6173 153.8762,-310.6173"/>
<text text-anchor="middle" x="142.3762" y="-299.4173" font-family="Times,serif" font-size="9.00" fill="#000000">B</text>
</g>
<!-- B&#45;&gt;id_296&#45;c_2 -->
<g id="edge4" class="edge">
<title>B&#45;&gt;id_296&#45;c_2</title>
<path fill="none" stroke="#00ff00" stroke-width=".2489" d="M132.9199,-292.4222C122.5824,-282.3702 105.3072,-265.5722 88.9768,-249.6928"/>
<polygon fill="#00ff00" stroke="#00ff00" stroke-width=".2489" points="91.1779,-246.9512 81.5685,-242.4891 86.2979,-251.9698 91.1779,-246.9512"/>
</g>
<!-- B&#45;&gt;id_295&#45;c_1 -->
<g id="edge3" class="edge">
<title>B&#45;&gt;id_295&#45;c_1</title>
<path fill="none" stroke="#00ff00" stroke-width=".1627" d="M144.1679,-292.4222C145.4617,-285.7822 147.3291,-276.1986 149.3396,-265.8806"/>
<polygon fill="#00ff00" stroke="#00ff00" stroke-width=".1627" points="152.8198,-266.32 151.2971,-255.8352 145.949,-264.9812 152.8198,-266.32"/>
</g>
<!-- id_A XOR B&#45;c_1 -->
<g id="node3" class="node">
<title>id_A XOR B&#45;c_1</title>
<ellipse fill="#add8e6" stroke="#000000" cx="103.3762" cy="-62.9325" rx="62.8651" ry="62.8651"/>
<text text-anchor="middle" x="103.3762" y="-60.7325" font-family="Times,serif" font-size="9.00" fill="#000000">id_A XOR B&#45;c_1</text>
</g>
<!-- id_296&#45;c_2&#45;&gt;id_A XOR B&#45;c_1 -->
<g id="edge6" class="edge">
<title>id_296&#45;c_2&#45;&gt;id_A XOR B&#45;c_1</title>
<path fill="none" stroke="#ff0000" stroke-width=".213" d="M64.33,-164.9467C68.3791,-154.3677 72.7953,-142.8297 77.1538,-131.4425"/>
<polygon fill="#ff0000" stroke="#ff0000" stroke-width=".213" points="80.4861,-132.5274 80.7921,-121.937 73.9486,-130.0251 80.4861,-132.5274"/>
</g>
<!-- id_295&#45;c_1&#45;&gt;id_A XOR B&#45;c_1 -->
<g id="edge5" class="edge">
<title>id_295&#45;c_1&#45;&gt;id_A XOR B&#45;c_1</title>
<path fill="none" stroke="#00ff00" stroke-width=".2905" d="M143.1196,-164.9467C138.9725,-154.302 134.4473,-142.6864 129.9841,-131.2303"/>
<polygon fill="#00ff00" stroke="#00ff00" stroke-width=".2905" points="133.1508,-129.7168 126.2594,-121.6695 126.6283,-132.258 133.1508,-129.7168"/>
</g>
</g>
</svg>
